<svg xmlns="http://www.w3.org/2000/svg" width="245.227" height="245.227" viewBox="0 0 245.227 245.227">
  <g id="detalhe" transform="translate(-1063 -4320.96)">
    <path id="Caminho_6189" data-name="Caminho 6189" d="M71.614,74.541a37.261,37.261,0,1,0,0-74.522L0,0A37.391,37.391,0,0,1,34.354,37.28h0a37.26,37.26,0,0,0,37.26,37.26" transform="translate(1176.488 4427.836) rotate(-79)" fill="#f8a128"/>
    <path id="Caminho_6190" data-name="Caminho 6190" d="M37.26,0a37.261,37.261,0,0,0,0,74.522l71.614.018A37.391,37.391,0,0,1,74.521,37.26h0A37.26,37.26,0,0,0,37.26,0" transform="translate(1100.793 4551.964) rotate(-79)" fill="#f8a128"/>
    <path id="Caminho_6191" data-name="Caminho 6191" d="M0,71.614a37.261,37.261,0,0,0,74.522,0c0-.979.019-71.614.019-71.614A37.39,37.39,0,0,1,37.262,34.354h0A37.261,37.261,0,0,0,0,71.614" transform="translate(1187.13 4507.62) rotate(-79)" fill="#f8a128"/>
    <path id="Caminho_6192" data-name="Caminho 6192" d="M74.541,37.262a37.261,37.261,0,1,0-74.522,0c0,.979-.019,71.614-.019,71.614A37.391,37.391,0,0,1,37.281,74.522h0a37.26,37.26,0,0,0,37.26-37.26" transform="translate(1063 4431.924) rotate(-79)" fill="#f8a128"/>
  </g>
</svg>
