<svg xmlns="http://www.w3.org/2000/svg" xmlns:xlink="http://www.w3.org/1999/xlink" width="499.368" height="418.01" viewBox="0 0 499.368 418.01">
  <defs>
    <clipPath id="clip-path">
      <rect id="Retângulo_122" data-name="Retângulo 122" width="499.368" height="418.01" fill="#f99d1c"/>
    </clipPath>
  </defs>
  <g id="Grupo_4152" data-name="Grupo 4152" clip-path="url(#clip-path)">
    <path id="Caminho_6085" data-name="Caminho 6085" d="M170.085,235.8a42.06,42.06,0,1,0,0-84.12l-80.837-.021a42.206,42.206,0,0,1,38.778,42.082h0A42.059,42.059,0,0,0,170.085,235.8" transform="translate(66.339 112.732)" fill="#f99d1c"/>
    <path id="Caminho_6086" data-name="Caminho 6086" d="M43.059,118.886a42.06,42.06,0,0,0,0,84.12l80.837.021a42.206,42.206,0,0,1-38.778-42.082h0a42.059,42.059,0,0,0-42.059-42.059" transform="translate(0.743 88.369)" fill="#f99d1c"/>
    <path id="Caminho_6087" data-name="Caminho 6087" d="M39.852,249.12a42.06,42.06,0,0,0,84.12,0c0-1.105.021-80.837.021-80.837a42.206,42.206,0,0,1-42.08,38.778h0A42.059,42.059,0,0,0,39.852,249.12" transform="translate(29.622 125.087)" fill="#f99d1c"/>
    <path id="Caminho_6088" data-name="Caminho 6088" d="M156.769,122.095a42.06,42.06,0,1,0-84.12,0c0,1.105-.021,80.837-.021,80.837a42.206,42.206,0,0,1,42.082-38.778h0a42.059,42.059,0,0,0,42.059-42.059" transform="translate(53.985 59.49)" fill="#f99d1c"/>
    <path id="Caminho_6089" data-name="Caminho 6089" d="M253.114,193.62h0A30.3,30.3,0,0,1,222.9,165.779s.014,57.243.014,58.038a30.2,30.2,0,1,0,30.2-30.2" transform="translate(165.686 123.226)" fill="#f99d1c"/>
    <path id="Caminho_6090" data-name="Caminho 6090" d="M229.568,162.815h0a30.3,30.3,0,0,1,30.212,27.841s-.014-57.245-.014-58.038a30.2,30.2,0,1,0-30.2,30.2" transform="translate(148.194 76.13)" fill="#f99d1c"/>
    <path id="Caminho_6091" data-name="Caminho 6091" d="M262.676,160.512h0a30.3,30.3,0,0,1-27.841,30.212l58.038-.014a30.2,30.2,0,1,0-30.2-30.2" transform="translate(174.556 96.864)" fill="#f99d1c"/>
    <path id="Caminho_6092" data-name="Caminho 6092" d="M231.871,184.059h0a30.3,30.3,0,0,1,27.841-30.212l-58.038.014a30.2,30.2,0,1,0,30.2,30.2" transform="translate(127.461 114.356)" fill="#f99d1c"/>
    <path id="Caminho_6093" data-name="Caminho 6093" d="M226.711,65.938h0a30.3,30.3,0,0,1-41.05,1.677l41.05,41.029a30.2,30.2,0,1,0,0-42.706" transform="translate(138.004 42.439)" fill="#f99d1c"/>
    <path id="Caminho_6094" data-name="Caminho 6094" d="M182.946,69.2h0A30.3,30.3,0,0,1,224,67.519s-40.488-40.466-41.05-41.029a30.2,30.2,0,1,0,0,42.706" transform="translate(97.669 13.117)" fill="#f99d1c"/>
    <path id="Caminho_6095" data-name="Caminho 6095" d="M196.334,52.55h0a30.3,30.3,0,0,1,1.677,41.05l41.027-41.05a30.2,30.2,0,1,0-42.7,0" transform="translate(139.364 0.743)" fill="#f99d1c"/>
    <path id="Caminho_6096" data-name="Caminho 6096" d="M199.591,96.316h0a30.3,30.3,0,0,1-1.677-41.05l-41.027,41.05a30.2,30.2,0,1,0,42.7,0" transform="translate(110.041 41.08)" fill="#f99d1c"/>
  </g>
</svg>
