<svg id="Grupo_4151" data-name="Grupo 4151" xmlns="http://www.w3.org/2000/svg" xmlns:xlink="http://www.w3.org/1999/xlink" width="258.233" height="144.667" viewBox="0 0 258.233 144.667">
  <defs>
    <clipPath id="clip-path">
      <rect id="Retângulo_121" data-name="Retângulo 121" width="258.233" height="144.667" fill="none"/>
    </clipPath>
  </defs>
  <g id="Grupo_4150" data-name="Grupo 4150" transform="translate(0 0)" clip-path="url(#clip-path)">
    <path id="Caminho_6084" data-name="Caminho 6084" d="M181.09,54.433a8.444,8.444,0,0,1,7.722-8.46l-16.1,0a8.456,8.456,0,1,0,8.375,8.456Zm-35.014,0a8.444,8.444,0,0,1,7.722-8.46l-16.1,0a8.456,8.456,0,1,0,8.376,8.456Zm1.58-25.376a8.457,8.457,0,0,0,0,16.913l16.1,0a8.444,8.444,0,0,1-7.722-8.46A8.411,8.411,0,0,0,147.656,29.057Zm-35.015,0a8.457,8.457,0,0,0,0,16.913l16.1,0a8.444,8.444,0,0,1-7.722-8.46A8.411,8.411,0,0,0,112.641,29.057ZM96.318,23.233A22.518,22.518,0,1,0,73.8,45.966H258.23M176.718,81.512a8.456,8.456,0,0,0,0,16.912l16.1,0a8.444,8.444,0,0,1-7.722-8.46A8.41,8.41,0,0,0,176.718,81.512Zm18.331,25.376a8.443,8.443,0,0,1,7.722-8.461l-16.1,0a8.457,8.457,0,1,0,8.376,8.457Zm-35.015,0a8.444,8.444,0,0,1,7.722-8.461l-16.1,0a8.457,8.457,0,1,0,8.376,8.457Zm-24.7,14.28A22.518,22.518,0,1,1,112.82,98.435H258.23M115.177,57.443a8.457,8.457,0,0,0,0,16.913l16.1,0a8.444,8.444,0,0,1-7.722-8.46A8.411,8.411,0,0,0,115.177,57.443Zm-35.014,0a8.457,8.457,0,0,0,0,16.913l16.1,0a8.443,8.443,0,0,1-7.722-8.46A8.411,8.411,0,0,0,80.163,57.443Zm18.33,25.376a8.444,8.444,0,0,1,7.723-8.46l-16.1,0a8.457,8.457,0,1,0,8.375,8.456Zm-35.014,0A8.443,8.443,0,0,1,71.2,74.36l-16.1,0a8.457,8.457,0,1,0,8.377,8.456ZM12.7,65.117a11.389,11.389,0,0,0-3.056,3.3c-.1.18-.2.356-.3.53-.091.148-.189.292-.285.437A11.209,11.209,0,0,1,.011,74.36a11.209,11.209,0,0,1,9.045,4.972c.1.144.194.288.285.437.105.175.208.35.3.53A11.389,11.389,0,0,0,12.7,83.6a11.13,11.13,0,0,0,6.506,2.112,11.355,11.355,0,0,0,0-22.709A11.13,11.13,0,0,0,12.7,65.117ZM30.417,74.36H258.23" transform="translate(0.003 0.133)" fill="none" stroke="#f99d1c" stroke-width="1"/>
  </g>
</svg>
