<svg xmlns="http://www.w3.org/2000/svg" xmlns:xlink="http://www.w3.org/1999/xlink" width="367.961" height="350.879" viewBox="0 0 367.961 350.879">
  <defs>
    <clipPath id="clip-path">
      <rect id="Retângulo_122" data-name="Retângulo 122" width="286.448" height="239.779" fill="none"/>
    </clipPath>
  </defs>
  <g id="Grupo_4153" data-name="Grupo 4153" transform="translate(0 143.224) rotate(-30)">
    <g id="Grupo_4152" data-name="Grupo 4152" clip-path="url(#clip-path)">
      <path id="Caminho_6085" data-name="Caminho 6085" d="M135.618,199.927a24.127,24.127,0,1,0,0-48.253l-46.37-.012A24.21,24.21,0,0,1,111.492,175.8h0a24.126,24.126,0,0,0,24.126,24.126" fill="none" stroke="#f99d1c" stroke-width="2"/>
      <path id="Caminho_6086" data-name="Caminho 6086" d="M25.126,118.886a24.127,24.127,0,0,0,0,48.253l46.37.012a24.21,24.21,0,0,1-22.244-24.139h0a24.126,24.126,0,0,0-24.126-24.126" fill="none" stroke="#f99d1c" stroke-width="2"/>
      <path id="Caminho_6087" data-name="Caminho 6087" d="M39.852,214.653a24.127,24.127,0,0,0,48.253,0c0-.634.012-46.37.012-46.37a24.21,24.21,0,0,1-24.138,22.244h0a24.126,24.126,0,0,0-24.127,24.126" fill="none" stroke="#f99d1c" stroke-width="2"/>
      <path id="Caminho_6088" data-name="Caminho 6088" d="M120.893,104.161a24.126,24.126,0,1,0-48.253,0c0,.634-.012,46.37-.012,46.37a24.21,24.21,0,0,1,24.139-22.244h0a24.126,24.126,0,0,0,24.126-24.126" fill="none" stroke="#f99d1c" stroke-width="2"/>
      <path id="Caminho_6089" data-name="Caminho 6089" d="M240.232,181.749h0a17.381,17.381,0,0,1-17.33-15.97s.008,32.836.008,33.292a17.322,17.322,0,1,0,17.322-17.322" fill="none" stroke="#f99d1c" stroke-width="2"/>
      <path id="Caminho_6090" data-name="Caminho 6090" d="M216.692,137.064h0a17.381,17.381,0,0,1,17.33,15.97s-.008-32.837-.008-33.292a17.322,17.322,0,1,0-17.322,17.322" fill="none" stroke="#f99d1c" stroke-width="2"/>
      <path id="Caminho_6091" data-name="Caminho 6091" d="M250.8,147.636h0a17.381,17.381,0,0,1-15.97,17.33l33.292-.008A17.322,17.322,0,1,0,250.8,147.636" fill="none" stroke="#f99d1c" stroke-width="2"/>
      <path id="Caminho_6092" data-name="Caminho 6092" d="M206.12,171.177h0a17.381,17.381,0,0,1,15.97-17.33l-33.292.008a17.322,17.322,0,1,0,17.322,17.322" fill="none" stroke="#f99d1c" stroke-width="2"/>
      <path id="Caminho_6093" data-name="Caminho 6093" d="M209.208,62.167h0a17.381,17.381,0,0,1-23.547.962l23.547,23.535a17.322,17.322,0,1,0,0-24.5" fill="none" stroke="#f99d1c" stroke-width="2"/>
      <path id="Caminho_6094" data-name="Caminho 6094" d="M160.966,47.216h0a17.381,17.381,0,0,1,23.547-.962s-23.225-23.212-23.547-23.535a17.322,17.322,0,1,0,0,24.5" fill="none" stroke="#f99d1c" stroke-width="2"/>
      <path id="Caminho_6095" data-name="Caminho 6095" d="M192.563,30.57h0a17.383,17.383,0,0,1,.962,23.547L217.059,30.57a17.321,17.321,0,1,0-24.5,0" fill="none" stroke="#f99d1c" stroke-width="2"/>
      <path id="Caminho_6096" data-name="Caminho 6096" d="M177.611,78.813h0a17.381,17.381,0,0,1-.962-23.547L153.115,78.813a17.321,17.321,0,1,0,24.5,0" fill="none" stroke="#f99d1c" stroke-width="2"/>
    </g>
  </g>
</svg>
